<?xml version="1.0" encoding="utf-8"?>
<!-- Generator: Adobe Illustrator 27.5.0, SVG Export Plug-In . SVG Version: 6.00 Build 0)  -->
<svg version="1.1" xmlns="http://www.w3.org/2000/svg" xmlns:xlink="http://www.w3.org/1999/xlink" x="0px" y="0px"
	 viewBox="0 0 500 500" style="enable-background:new 0 0 500 500;" xml:space="preserve">
<g id="Floor">
	<ellipse id="Floor_5_" style="fill:#F5F5F5;" cx="250.048" cy="346.017" rx="227.879" ry="125.27"/>
</g>
<g id="Shadows">
	<ellipse id="Shadow_8_" style="fill:#E0E0E0;" cx="292.778" cy="410.102" rx="72.579" ry="41.904"/>
	<path id="Shadow_7_" style="fill:#E0E0E0;" d="M234.133,359.323l130.911-75.581c1.546-0.892,1.546-2.339,0-3.231l-57.408-33.144
		c-1.546-0.892-4.051-0.892-5.597,0l-130.91,75.582c-1.546,0.892-1.546,2.339,0,3.231l57.407,33.144
		C230.081,360.215,232.587,360.216,234.133,359.323z"/>
	<path id="Shadow_6_" style="fill:#E0E0E0;" d="M123.851,374.479l-83.657-48.301c-1.546-0.892-1.546-2.339,0-3.231l136.161-78.613
		c1.546-0.892,4.051-0.892,5.597,0l83.659,48.3c1.546,0.892,1.546,2.339,0,3.231l-136.163,78.614
		C127.903,375.372,125.397,375.372,123.851,374.479z"/>
</g>
<g id="Photos_2_">
	<g id="Photos_1_">
		<g>
			<path style="fill:#37474F;" d="M167.922,236.929L42.227,309.508c-0.903,0.521-1.636,1.79-1.636,2.833v3.309
				c0,1.043,0.732,2.311,1.636,2.833l82.645,47.715c0.903,0.521,2.368,0.521,3.271,0l125.712-72.589
				c0.903-0.522,1.635-1.79,1.635-2.833l0-3.309c0-1.043-0.732-2.311-1.636-2.832l-82.661-47.707
				C170.29,236.407,168.825,236.407,167.922,236.929z"/>
			<path style="fill:#455A64;" d="M124.872,359.112l-82.645-47.715c-0.903-0.521-0.903-1.367,0-1.888l125.695-72.579
				c0.903-0.521,2.368-0.522,3.271,0l82.661,47.707c0.903,0.521,0.903,1.367,0,1.888l-125.711,72.588
				C127.24,359.634,125.776,359.634,124.872,359.112z"/>
			<path style="fill:#263238;" d="M126.613,359.498v7.086c-0.62,0.015-1.254-0.106-1.738-0.378L42.221,318.48
				c-0.891-0.514-1.632-1.783-1.632-2.825v-3.309c0-0.922,0.574-2.024,1.33-2.629c-0.574,0.529-0.484,1.224,0.302,1.677
				l82.655,47.71C125.359,359.392,125.993,359.513,126.613,359.498z"/>
		</g>
		<g id="XMLID_95_">
			<g id="XMLID_96_">
				<polygon id="XMLID_103_" style="fill:#E0E0E0;" points="234.112,291.504 230.671,293.495 242.884,201.384 246.333,199.393 				
					"/>
				<polygon id="XMLID_102_" style="fill:#FAFAFA;" points="230.671,293.495 156.997,250.977 169.21,158.867 242.884,201.384 				
					"/>
				<polygon id="XMLID_101_" style="fill:#EBEBEB;" points="246.333,199.393 242.884,201.384 169.21,158.867 172.706,156.848 				
					"/>
				<polygon id="XMLID_100_" style="fill:#27DEBF;" points="239.034,202.767 171.514,163.801 160.434,247.965 227.954,286.881 				
					"/>
				<polygon id="XMLID_99_" style="opacity:0.8;fill:#FFFFFF;" points="239.034,202.767 171.514,163.801 160.434,247.965 
					227.954,286.881 				"/>
				<path style="fill:#27DEBF;" d="M167.671,215.546l17.32-16.412c1.809-1.715,3.946-1.186,4.747,1.174l12.419,36.58
					c0.31,0.912,1.666,0.639,1.599-0.322l-0.54-7.709l11.053-7.773c2.039-1.434,4.62-0.783,5.734,1.447l13.003,26.002l-4.615,35.034
					L163.5,246.135L167.671,215.546z"/>
				<path style="fill:#27DEBF;" d="M226.418,202.983c-3.048-1.759-5.897-0.565-6.363,2.666c-0.467,3.231,1.655,7.294,4.738,9.074
					c3.083,1.78,5.932,0.586,6.363-2.666C231.587,208.805,229.466,204.742,226.418,202.983z"/>
				<polygon id="XMLID_98_" style="fill:#E0E0E0;" points="174.573,165.579 163.5,246.135 160.441,247.908 171.514,163.801 				"/>
				<polygon id="XMLID_97_" style="fill:#EBEBEB;" points="163.5,246.135 228.391,283.566 227.954,286.881 160.441,247.908 				"/>
			</g>
		</g>
		<g id="XMLID_86_">
			<g id="XMLID_87_">
				<polygon id="XMLID_94_" style="fill:#E0E0E0;" points="215.786,302.119 212.345,304.11 224.558,212 228.007,210.008 				"/>
				<polygon id="XMLID_93_" style="fill:#FAFAFA;" points="212.345,304.11 138.671,261.593 150.883,169.482 224.558,212 				"/>
				<polygon id="XMLID_92_" style="fill:#EBEBEB;" points="228.007,210.008 224.558,212 150.883,169.482 154.38,167.463 				"/>
				<polygon id="XMLID_91_" style="fill:#27DEBF;" points="220.708,213.382 153.188,174.417 142.108,258.58 209.628,297.497 				"/>
				<polygon id="XMLID_90_" style="opacity:0.8;fill:#FFFFFF;" points="220.708,213.382 153.188,174.417 142.108,258.58 
					209.628,297.497 				"/>
				<path style="fill:#27DEBF;" d="M149.345,226.161l17.32-16.412c1.809-1.715,3.946-1.186,4.747,1.174l12.419,36.58
					c0.31,0.912,1.666,0.639,1.599-0.322l-0.54-7.709l11.053-7.773c2.039-1.434,4.62-0.783,5.734,1.447l13.003,26.002l-4.615,35.034
					l-64.891-37.431L149.345,226.161z"/>
				<path style="fill:#27DEBF;" d="M208.092,213.598c-3.048-1.759-5.897-0.565-6.363,2.666c-0.467,3.231,1.654,7.294,4.738,9.074
					c3.083,1.78,5.932,0.586,6.363-2.666C213.261,219.42,211.14,215.357,208.092,213.598z"/>
				<polygon id="XMLID_89_" style="fill:#E0E0E0;" points="156.247,176.195 145.174,256.75 142.115,258.524 153.188,174.417 				"/>
				<polygon id="XMLID_88_" style="fill:#EBEBEB;" points="145.174,256.75 210.065,294.181 209.628,297.497 142.115,258.524 				"/>
			</g>
		</g>
		<g id="XMLID_77_">
			<g id="XMLID_78_">
				<polygon id="XMLID_85_" style="fill:#E0E0E0;" points="197.46,312.735 194.019,314.725 206.232,222.615 209.681,220.623 				"/>
				<polygon id="XMLID_84_" style="fill:#FAFAFA;" points="194.019,314.725 120.345,272.208 132.558,180.097 206.232,222.615 				
					"/>
				<polygon id="XMLID_83_" style="fill:#EBEBEB;" points="209.681,220.623 206.232,222.615 132.558,180.097 136.055,178.078 				
					"/>
				<polygon id="XMLID_82_" style="fill:#27DEBF;" points="202.382,223.997 134.862,185.032 123.782,269.196 191.303,308.112 				
					"/>
				<polygon id="XMLID_81_" style="opacity:0.8;fill:#FFFFFF;" points="202.382,223.997 134.862,185.032 123.782,269.196 
					191.303,308.112 				"/>
				<path style="fill:#27DEBF;" d="M131.019,236.777l17.32-16.412c1.809-1.715,3.946-1.186,4.747,1.174l12.419,36.58
					c0.31,0.912,1.666,0.639,1.599-0.322l-0.54-7.709l11.053-7.773c2.039-1.434,4.62-0.783,5.734,1.447l13.003,26.002l-4.615,35.034
					l-64.891-37.431L131.019,236.777z"/>
				<path style="fill:#27DEBF;" d="M189.766,224.214c-3.048-1.759-5.897-0.565-6.363,2.666c-0.467,3.231,1.654,7.294,4.737,9.074
					c3.083,1.78,5.932,0.586,6.363-2.666C194.935,230.035,192.814,225.972,189.766,224.214z"/>
				<polygon id="XMLID_80_" style="fill:#E0E0E0;" points="137.921,186.81 126.848,267.365 123.789,269.139 134.862,185.032 				"/>
				<polygon id="XMLID_79_" style="fill:#EBEBEB;" points="126.848,267.365 191.739,304.797 191.303,308.112 123.789,269.139 				
					"/>
			</g>
		</g>
		<g id="XMLID_68_">
			<g id="XMLID_69_">
				<polygon id="XMLID_76_" style="fill:#E0E0E0;" points="179.134,323.35 175.693,325.341 187.906,233.23 191.355,231.238 				"/>
				<polygon id="XMLID_75_" style="fill:#FAFAFA;" points="175.693,325.341 102.019,282.823 114.232,190.712 187.906,233.23 				"/>
				<polygon id="XMLID_74_" style="fill:#EBEBEB;" points="191.355,231.238 187.906,233.23 114.232,190.712 117.729,188.693 				"/>
				<polygon id="XMLID_73_" style="fill:#27DEBF;" points="184.056,234.612 116.536,195.647 105.456,279.811 172.977,318.727 				
					"/>
				<polygon id="XMLID_72_" style="opacity:0.8;fill:#FFFFFF;" points="184.056,234.612 116.536,195.647 105.456,279.811 
					172.977,318.727 				"/>
				<path style="fill:#27DEBF;" d="M112.693,247.392l17.32-16.412c1.809-1.715,3.946-1.186,4.747,1.174l12.419,36.58
					c0.31,0.912,1.666,0.639,1.599-0.322l-0.54-7.709l11.053-7.773c2.039-1.434,4.62-0.783,5.734,1.447l13.003,26.002l-4.615,35.034
					l-64.891-37.432L112.693,247.392z"/>
				<path style="fill:#27DEBF;" d="M171.44,234.829c-3.048-1.759-5.897-0.565-6.363,2.666c-0.467,3.231,1.654,7.294,4.738,9.074
					c3.083,1.78,5.932,0.586,6.363-2.666C176.609,240.65,174.488,236.588,171.44,234.829z"/>
				<polygon id="XMLID_71_" style="fill:#E0E0E0;" points="119.595,197.425 108.522,277.98 105.463,279.754 116.536,195.647 				"/>
				<polygon id="XMLID_70_" style="fill:#EBEBEB;" points="108.522,277.98 173.413,315.412 172.977,318.727 105.463,279.754 				"/>
			</g>
		</g>
		<g id="XMLID_59_">
			<g id="XMLID_60_">
				<polygon id="XMLID_67_" style="fill:#E0E0E0;" points="160.808,333.965 157.367,335.956 169.58,243.845 173.029,241.854 				"/>
				<polygon id="XMLID_66_" style="fill:#FAFAFA;" points="157.367,335.956 83.693,293.438 95.906,201.328 169.58,243.845 				"/>
				<polygon id="XMLID_65_" style="fill:#EBEBEB;" points="173.029,241.854 169.58,243.845 95.906,201.328 99.403,199.309 				"/>
				<polygon id="XMLID_64_" style="fill:#27DEBF;" points="165.73,245.227 98.211,206.262 87.13,290.426 154.651,329.342 				"/>
				<polygon id="XMLID_63_" style="opacity:0.8;fill:#FFFFFF;" points="165.73,245.227 98.211,206.262 87.13,290.426 
					154.651,329.342 				"/>
				<path style="fill:#27DEBF;" d="M94.367,258.007l17.32-16.412c1.809-1.715,3.946-1.186,4.747,1.174l12.419,36.58
					c0.31,0.912,1.666,0.639,1.599-0.322l-0.54-7.709l11.053-7.773c2.039-1.434,4.62-0.783,5.734,1.447l13.003,26.002l-4.615,35.034
					l-64.891-37.432L94.367,258.007z"/>
				<path style="fill:#27DEBF;" d="M153.114,245.444c-3.048-1.759-5.897-0.565-6.363,2.666c-0.467,3.231,1.654,7.294,4.737,9.074
					c3.083,1.78,5.932,0.586,6.363-2.666C158.283,251.265,156.162,247.203,153.114,245.444z"/>
				<polygon id="XMLID_62_" style="fill:#E0E0E0;" points="101.269,208.04 90.196,288.595 87.137,290.369 98.211,206.262 				"/>
				<polygon id="XMLID_61_" style="fill:#EBEBEB;" points="90.196,288.595 155.087,326.027 154.651,329.342 87.137,290.369 				"/>
			</g>
		</g>
		<g id="XMLID_50_">
			<g id="XMLID_51_">
				<polygon id="XMLID_58_" style="fill:#E0E0E0;" points="142.482,344.58 139.041,346.571 151.254,254.46 154.703,252.469 				"/>
				<polygon id="XMLID_57_" style="fill:#FAFAFA;" points="139.041,346.571 65.367,304.053 77.58,211.943 151.254,254.46 				"/>
				<polygon id="XMLID_56_" style="fill:#EBEBEB;" points="154.703,252.469 151.254,254.46 77.58,211.943 81.077,209.924 				"/>
				<polygon id="XMLID_55_" style="fill:#27DEBF;" points="147.404,255.843 79.884,216.878 68.804,301.041 136.325,339.957 				"/>
				<polygon id="XMLID_54_" style="opacity:0.8;fill:#FFFFFF;" points="147.404,255.843 79.884,216.878 68.804,301.041 
					136.325,339.957 				"/>
				<path style="fill:#27DEBF;" d="M76.041,268.622l17.32-16.412c1.809-1.715,3.946-1.186,4.747,1.174l12.419,36.58
					c0.31,0.912,1.666,0.639,1.599-0.322l-0.54-7.709l11.053-7.773c2.039-1.434,4.62-0.783,5.734,1.447l13.003,26.002l-4.615,35.034
					L71.87,299.211L76.041,268.622z"/>
				<path style="fill:#27DEBF;" d="M134.788,256.059c-3.048-1.759-5.897-0.565-6.363,2.666c-0.467,3.231,1.654,7.294,4.738,9.074
					c3.083,1.78,5.932,0.586,6.363-2.666C139.957,261.88,137.836,257.818,134.788,256.059z"/>
				<polygon id="XMLID_53_" style="fill:#E0E0E0;" points="82.943,218.655 71.87,299.211 68.811,300.984 79.884,216.878 				"/>
				<polygon id="XMLID_52_" style="fill:#EBEBEB;" points="71.87,299.211 136.761,336.642 136.325,339.957 68.811,300.984 				"/>
			</g>
		</g>
	</g>
	<g id="Photos">
		<g>
			<path style="fill:#37474F;" d="M167.922,120.581L42.227,193.161c-0.903,0.521-1.636,1.79-1.636,2.833v3.309
				c0,1.043,0.732,2.311,1.636,2.833l82.645,47.715c0.903,0.521,2.368,0.521,3.271,0l125.712-72.589
				c0.903-0.521,1.635-1.79,1.635-2.833l0-3.309c0-1.043-0.732-2.311-1.636-2.832l-82.661-47.707
				C170.29,120.06,168.825,120.06,167.922,120.581z"/>
			<path style="fill:#455A64;" d="M124.872,242.765l-82.645-47.715c-0.903-0.521-0.903-1.367,0-1.888l125.695-72.579
				c0.903-0.521,2.368-0.522,3.271,0l82.661,47.707c0.903,0.521,0.903,1.367,0,1.888l-125.711,72.588
				C127.24,243.286,125.776,243.286,124.872,242.765z"/>
			<path style="fill:#263238;" d="M126.613,243.151v7.086c-0.62,0.015-1.254-0.106-1.738-0.378l-82.655-47.726
				c-0.891-0.514-1.632-1.783-1.632-2.825v-3.309c0-0.922,0.574-2.025,1.33-2.629c-0.574,0.529-0.484,1.224,0.302,1.677
				l82.655,47.71C125.359,243.045,125.993,243.166,126.613,243.151z"/>
		</g>
		<g id="XMLID_41_">
			<g id="XMLID_42_">
				<polygon id="XMLID_49_" style="fill:#E0E0E0;" points="234.112,174.397 230.671,176.388 242.884,84.278 246.333,82.286 				"/>
				<polygon id="XMLID_48_" style="fill:#FAFAFA;" points="230.671,176.388 156.997,133.871 169.21,41.76 242.884,84.278 				"/>
				<polygon id="XMLID_47_" style="fill:#EBEBEB;" points="246.333,82.286 242.884,84.278 169.21,41.76 172.706,39.741 				"/>
				<polygon id="XMLID_46_" style="fill:#27DEBF;" points="239.034,85.66 171.514,46.695 160.434,130.858 227.954,169.775 				"/>
				<polygon id="XMLID_45_" style="opacity:0.8;fill:#FFFFFF;" points="239.034,85.66 171.514,46.695 160.434,130.858 
					227.954,169.775 				"/>
				<path style="fill:#27DEBF;" d="M167.671,98.439l17.32-16.412c1.809-1.715,3.946-1.186,4.747,1.174l12.419,36.58
					c0.31,0.912,1.666,0.639,1.599-0.322l-0.54-7.709l11.053-7.773c2.039-1.434,4.62-0.783,5.734,1.447l13.003,26.002l-4.615,35.034
					L163.5,129.028L167.671,98.439z"/>
				<path style="fill:#27DEBF;" d="M226.418,85.876c-3.048-1.759-5.897-0.565-6.363,2.666c-0.467,3.231,1.655,7.294,4.738,9.074
					c3.083,1.78,5.932,0.586,6.363-2.666C231.587,91.698,229.466,87.635,226.418,85.876z"/>
				<polygon id="XMLID_44_" style="fill:#E0E0E0;" points="174.573,48.472 163.5,129.028 160.441,130.802 171.514,46.695 				"/>
				<polygon id="XMLID_43_" style="fill:#EBEBEB;" points="163.5,129.028 228.391,166.459 227.954,169.775 160.441,130.802 				"/>
			</g>
		</g>
		<g id="XMLID_32_">
			<g id="XMLID_33_">
				<polygon id="XMLID_40_" style="fill:#E0E0E0;" points="215.786,185.013 212.345,187.003 224.558,94.893 228.007,92.901 				"/>
				<polygon id="XMLID_39_" style="fill:#FAFAFA;" points="212.345,187.003 138.671,144.486 150.883,52.375 224.558,94.893 				"/>
				<polygon id="XMLID_38_" style="fill:#EBEBEB;" points="228.007,92.901 224.558,94.893 150.883,52.375 154.38,50.356 				"/>
				<polygon id="XMLID_37_" style="fill:#27DEBF;" points="220.708,96.275 153.188,57.31 142.108,141.474 209.628,180.39 				"/>
				<polygon id="XMLID_36_" style="opacity:0.8;fill:#FFFFFF;" points="220.708,96.275 153.188,57.31 142.108,141.474 
					209.628,180.39 				"/>
				<path style="fill:#27DEBF;" d="M149.345,109.054l17.32-16.412c1.809-1.715,3.946-1.186,4.747,1.174l12.419,36.58
					c0.31,0.912,1.666,0.639,1.599-0.322l-0.54-7.709l11.053-7.773c2.039-1.434,4.62-0.783,5.734,1.447l13.003,26.002l-4.615,35.034
					l-64.891-37.432L149.345,109.054z"/>
				<path style="fill:#27DEBF;" d="M208.092,96.492c-3.048-1.759-5.897-0.565-6.363,2.666c-0.467,3.231,1.654,7.294,4.738,9.074
					c3.083,1.78,5.932,0.586,6.363-2.666C213.261,102.313,211.14,98.25,208.092,96.492z"/>
				<polygon id="XMLID_35_" style="fill:#E0E0E0;" points="156.247,59.088 145.174,139.643 142.115,141.417 153.188,57.31 				"/>
				<polygon id="XMLID_34_" style="fill:#EBEBEB;" points="145.174,139.643 210.065,177.075 209.628,180.39 142.115,141.417 				"/>
			</g>
		</g>
		<g id="XMLID_23_">
			<g id="XMLID_24_">
				<polygon id="XMLID_31_" style="fill:#E0E0E0;" points="197.46,195.628 194.019,197.618 206.232,105.508 209.681,103.516 				"/>
				<polygon id="XMLID_30_" style="fill:#FAFAFA;" points="194.019,197.618 120.345,155.101 132.558,62.99 206.232,105.508 				"/>
				<polygon id="XMLID_29_" style="fill:#EBEBEB;" points="209.681,103.516 206.232,105.508 132.558,62.99 136.055,60.971 				"/>
				<polygon id="XMLID_28_" style="fill:#27DEBF;" points="202.382,106.89 134.862,67.925 123.782,152.089 191.303,191.005 				"/>
				<polygon id="XMLID_27_" style="opacity:0.8;fill:#FFFFFF;" points="202.382,106.89 134.862,67.925 123.782,152.089 
					191.303,191.005 				"/>
				<path style="fill:#27DEBF;" d="M131.019,119.67l17.32-16.412c1.809-1.715,3.946-1.186,4.747,1.174l12.419,36.58
					c0.31,0.912,1.666,0.639,1.599-0.322l-0.54-7.709l11.053-7.773c2.039-1.434,4.62-0.783,5.734,1.447l13.003,26.002l-4.615,35.034
					l-64.891-37.432L131.019,119.67z"/>
				<path style="fill:#27DEBF;" d="M189.766,107.107c-3.048-1.759-5.897-0.565-6.363,2.666c-0.467,3.231,1.654,7.294,4.737,9.074
					c3.083,1.78,5.932,0.586,6.363-2.666C194.935,112.928,192.814,108.866,189.766,107.107z"/>
				<polygon id="XMLID_26_" style="fill:#E0E0E0;" points="137.921,69.703 126.848,150.258 123.789,152.032 134.862,67.925 				"/>
				<polygon id="XMLID_25_" style="fill:#EBEBEB;" points="126.848,150.258 191.739,187.69 191.303,191.005 123.789,152.032 				"/>
			</g>
		</g>
		<g id="XMLID_14_">
			<g id="XMLID_15_">
				<polygon id="XMLID_22_" style="fill:#E0E0E0;" points="179.134,206.243 175.693,208.234 187.906,116.123 191.355,114.132 				
					"/>
				<polygon id="XMLID_21_" style="fill:#FAFAFA;" points="175.693,208.234 102.019,165.716 114.232,73.606 187.906,116.123 				"/>
				<polygon id="XMLID_20_" style="fill:#EBEBEB;" points="191.355,114.132 187.906,116.123 114.232,73.606 117.729,71.587 				"/>
				<polygon id="XMLID_19_" style="fill:#27DEBF;" points="184.056,117.505 116.536,78.54 105.456,162.704 172.977,201.62 				"/>
				<polygon id="XMLID_18_" style="opacity:0.8;fill:#FFFFFF;" points="184.056,117.505 116.536,78.54 105.456,162.704 
					172.977,201.62 				"/>
				<path style="fill:#27DEBF;" d="M112.693,130.285l17.32-16.412c1.809-1.715,3.946-1.186,4.747,1.174l12.419,36.58
					c0.31,0.912,1.666,0.639,1.599-0.322l-0.54-7.709l11.053-7.773c2.039-1.434,4.62-0.783,5.734,1.447l13.003,26.002l-4.615,35.034
					l-64.891-37.431L112.693,130.285z"/>
				<path style="fill:#27DEBF;" d="M171.44,117.722c-3.048-1.759-5.897-0.565-6.363,2.666c-0.467,3.231,1.654,7.294,4.738,9.074
					c3.083,1.78,5.932,0.586,6.363-2.666C176.609,123.543,174.488,119.481,171.44,117.722z"/>
				<polygon id="XMLID_17_" style="fill:#E0E0E0;" points="119.595,80.318 108.522,160.874 105.463,162.647 116.536,78.54 				"/>
				<polygon id="XMLID_16_" style="fill:#EBEBEB;" points="108.522,160.874 173.413,198.305 172.977,201.62 105.463,162.647 				"/>
			</g>
		</g>
		<g id="XMLID_1_">
			<g id="XMLID_6_">
				<polygon id="XMLID_13_" style="fill:#E0E0E0;" points="160.808,216.858 157.367,218.849 169.58,126.738 173.029,124.747 				"/>
				<polygon id="XMLID_12_" style="fill:#FAFAFA;" points="157.367,218.849 83.693,176.331 95.906,84.221 169.58,126.738 				"/>
				<polygon id="XMLID_11_" style="fill:#EBEBEB;" points="173.029,124.747 169.58,126.738 95.906,84.221 99.403,82.202 				"/>
				<polygon id="XMLID_10_" style="fill:#27DEBF;" points="165.73,128.121 98.211,89.156 87.13,173.319 154.651,212.235 				"/>
				<polygon id="XMLID_9_" style="opacity:0.8;fill:#FFFFFF;" points="165.73,128.121 98.211,89.156 87.13,173.319 154.651,212.235 
									"/>
				<path style="fill:#27DEBF;" d="M94.367,140.9l17.32-16.412c1.809-1.715,3.946-1.186,4.747,1.174l12.419,36.58
					c0.31,0.912,1.666,0.639,1.599-0.322l-0.54-7.709l11.053-7.773c2.039-1.434,4.62-0.783,5.734,1.447l13.003,26.002l-4.615,35.034
					l-64.891-37.432L94.367,140.9z"/>
				<path style="fill:#27DEBF;" d="M153.114,128.337c-3.048-1.759-5.897-0.565-6.363,2.666c-0.467,3.231,1.654,7.294,4.737,9.074
					c3.083,1.78,5.932,0.586,6.363-2.666C158.283,134.158,156.162,130.096,153.114,128.337z"/>
				<polygon id="XMLID_8_" style="fill:#E0E0E0;" points="101.269,90.933 90.196,171.489 87.137,173.262 98.211,89.156 				"/>
				<polygon id="XMLID_7_" style="fill:#EBEBEB;" points="90.196,171.489 155.087,208.92 154.651,212.235 87.137,173.262 				"/>
			</g>
		</g>
		<g id="XMLID_892_">
			<g id="XMLID_894_">
				<polygon id="XMLID_909_" style="fill:#E0E0E0;" points="142.482,227.473 139.041,229.464 151.254,137.354 154.703,135.362 				
					"/>
				<polygon id="XMLID_908_" style="fill:#FAFAFA;" points="139.041,229.464 65.367,186.947 77.58,94.836 151.254,137.354 				"/>
				<polygon id="XMLID_903_" style="fill:#EBEBEB;" points="154.703,135.362 151.254,137.354 77.58,94.836 81.077,92.817 				"/>
				<polygon id="XMLID_902_" style="fill:#27DEBF;" points="147.404,138.736 79.884,99.771 68.804,183.934 136.325,222.851 				"/>
				<polygon id="XMLID_901_" style="opacity:0.8;fill:#FFFFFF;" points="147.404,138.736 79.884,99.771 68.804,183.934 
					136.325,222.851 				"/>
				<path style="fill:#27DEBF;" d="M76.041,151.515l17.32-16.412c1.809-1.715,3.946-1.186,4.747,1.174l12.419,36.58
					c0.31,0.912,1.666,0.639,1.599-0.322l-0.54-7.709l11.053-7.773c2.039-1.434,4.62-0.783,5.734,1.447l13.003,26.002l-4.615,35.034
					L71.87,182.104L76.041,151.515z"/>
				<path style="fill:#27DEBF;" d="M134.788,138.952c-3.048-1.759-5.897-0.565-6.363,2.666c-0.467,3.231,1.654,7.294,4.738,9.074
					c3.083,1.78,5.932,0.586,6.363-2.666C139.957,144.774,137.836,140.711,134.788,138.952z"/>
				<polygon id="XMLID_899_" style="fill:#E0E0E0;" points="82.943,101.549 71.87,182.104 68.811,183.878 79.884,99.771 				"/>
				<polygon id="XMLID_896_" style="fill:#EBEBEB;" points="71.87,182.104 136.761,219.535 136.325,222.851 68.811,183.878 				"/>
			</g>
		</g>
	</g>
</g>
<g id="Window">
	<g id="Window_4_">
		<g id="XMLID_397_">
			<g id="XMLID_2352_">
				<path style="fill:#455A64;" d="M366.203,45.324v224.283c0,2.981-2.095,6.589-4.663,8.072l-128.849,74.342
					c-0.535,0.306-1.07,0.458-1.544,0.443c-0.199,0-0.398-0.031-0.596-0.077c-0.138-0.031-0.276-0.076-0.398-0.138
					c-0.091-0.046-0.168-0.092-0.244-0.138c-0.091-0.061-0.183-0.122-0.275-0.184c-0.092-0.076-0.184-0.138-0.26-0.229
					c-0.367-0.336-0.642-0.749-0.856-1.223c-0.306-0.688-0.489-1.498-0.489-2.354V124.971c0-2.966,2.094-6.589,4.663-8.072
					L361.54,42.633c1.208-0.688,2.293-0.795,3.134-0.397c0.138,0.061,0.275,0.138,0.397,0.229c0.015,0.015,0.031,0.031,0.031,0.031
					c0.122,0.092,0.214,0.183,0.306,0.306c0.061,0.046,0.092,0.107,0.137,0.168c0.061,0.076,0.123,0.153,0.153,0.244
					c0.122,0.184,0.214,0.382,0.275,0.596c0.046,0.122,0.092,0.26,0.107,0.413c0.015,0.03,0.031,0.061,0.015,0.092
					c0.046,0.138,0.061,0.275,0.077,0.428C366.188,44.926,366.203,45.125,366.203,45.324z"/>
			</g>
			<g id="XMLID_411_">
				<g id="XMLID_962_">
					<path style="fill:#27DEBF;" d="M364.674,42.236c-0.841-0.398-1.926-0.29-3.134,0.397l-128.849,74.266
						c-2.568,1.483-4.663,5.106-4.663,8.072v15.226l-5.947-3.486v-15.119c0-2.966,2.079-6.574,4.648-8.057L355.593,39.27
						c1.33-0.78,2.522-0.795,3.379-0.275C359.812,39.499,363.68,41.716,364.674,42.236z"/>
				</g>
				<path id="XMLID_961_" style="fill:#27DEBF;" d="M366.192,45.293c-0.018-2.942-2.093-4.132-4.654-2.653l-128.85,74.264
					c-2.572,1.485-4.657,5.096-4.657,8.066l0.005,15.234l138.156-79.625V45.293z"/>
				<g id="XMLID_952_" style="opacity:0.4;">
					<path style="fill:#FFFFFF;" d="M361.537,42.638l-128.843,74.264c-1.274,0.747-2.446,2.007-3.281,3.457l-5.918-3.427
						c0.835-1.435,1.981-2.683,3.24-3.401l128.854-74.264c1.333-0.776,2.52-0.788,3.384-0.276c0.835,0.513,4.702,2.71,5.683,3.237
						C363.836,41.832,362.738,41.949,361.537,42.638z"/>
				</g>
				<path id="XMLID_951_" style="opacity:0.15;" d="M222.074,136.731l0.003-15.142c0-1.509,0.553-3.178,1.417-4.658l5.932,3.413
					c-0.864,1.465-1.391,3.12-1.391,4.628v15.231L222.074,136.731z"/>
			</g>
			<g id="XMLID_399_">
				<path id="XMLID_409_" style="fill:#455A64;" d="M338.14,62.634c-1.453,0.839-2.632,3.333-2.632,5.571
					c0,2.237,1.178,3.371,2.632,2.532c1.453-0.839,2.631-3.333,2.631-5.57C340.771,62.928,339.593,61.794,338.14,62.634z"/>
				<path id="XMLID_401_" style="fill:#455A64;" d="M347.613,57.154c-1.453,0.839-2.632,3.333-2.632,5.571s1.178,3.371,2.632,2.532
					c1.453-0.839,2.631-3.333,2.631-5.571C350.245,57.448,349.067,56.315,347.613,57.154z"/>
				<path id="XMLID_400_" style="fill:#455A64;" d="M357.087,51.674c-1.453,0.839-2.631,3.333-2.631,5.571
					c0,2.237,1.178,3.371,2.631,2.532c1.453-0.839,2.632-3.333,2.632-5.571C359.719,51.969,358.54,50.835,357.087,51.674z"/>
			</g>
			<g id="XMLID_398_">
				<path style="fill:#37474F;" d="M229.741,352.036c-0.168-0.107-0.367-0.214-0.581-0.337c-0.428-0.26-0.917-0.535-1.437-0.81
					l-0.015-0.015c-0.26-0.153-0.52-0.306-0.779-0.443c-0.015-0.015-0.046-0.031-0.061-0.031c-0.428-0.244-0.841-0.489-1.223-0.703
					c-0.398-0.229-0.749-0.428-1.024-0.581c-0.275-0.168-0.489-0.275-0.581-0.321c-0.29-0.153-0.565-0.367-0.794-0.642
					c-0.245-0.26-0.459-0.581-0.627-0.948c-0.336-0.703-0.535-1.559-0.535-2.461V136.711l5.947,3.486v207.926
					c0.046,0.917,0.214,1.697,0.489,2.354c0.214,0.474,0.489,0.887,0.856,1.223c0.061,0.092,0.153,0.168,0.26,0.229
					C229.664,351.975,229.695,352.005,229.741,352.036z"/>
			</g>
		</g>
		<g id="XMLID_2042_">
			<g id="XMLID_396_">
				<path id="XMLID_2053_" style="fill:#27DEBF;" d="M239.473,152.853c0-0.279,0.079-0.57,0.237-0.87l3.349-6.929
					c0.055-0.101,0.106-0.17,0.152-0.204c0.045-0.035,0.073-0.056,0.085-0.063c0.1-0.058,0.188-0.052,0.263,0.019
					c0.073,0.071,0.111,0.184,0.111,0.34v2.329c0,0.296-0.022,0.536-0.069,0.719c-0.045,0.183-0.124,0.394-0.237,0.634l-1.766,3.662
					l1.766,1.621c0.113,0.109,0.193,0.229,0.237,0.36c0.046,0.131,0.069,0.344,0.069,0.641v2.327c0,0.157-0.037,0.314-0.111,0.47
					c-0.075,0.156-0.163,0.264-0.263,0.322c-0.012,0.007-0.04,0.019-0.085,0.036c-0.046,0.017-0.097,0.008-0.152-0.03l-3.349-3.064
					c-0.158-0.117-0.237-0.315-0.237-0.594V152.853z"/>
				<path id="XMLID_2055_" style="fill:#27DEBF;" d="M251.722,135.474c0.057-0.224,0.14-0.451,0.254-0.683
					c0.114-0.23,0.278-0.407,0.493-0.532l1.257-0.726c0.101-0.059,0.19-0.053,0.264,0.018c0.073,0.071,0.109,0.184,0.109,0.341
					c0,0.07-0.01,0.155-0.033,0.255l-5.742,24.476c-0.045,0.201-0.125,0.422-0.239,0.661c-0.113,0.239-0.282,0.425-0.509,0.555
					l-1.206,0.697c-0.102,0.059-0.19,0.053-0.263-0.018c-0.075-0.071-0.111-0.186-0.111-0.343c0-0.07,0.01-0.154,0.033-0.254
					L251.722,135.474z"/>
				<path id="XMLID_2057_" style="fill:#27DEBF;" d="M260.607,142.378c0,0.279-0.079,0.568-0.238,0.869l-3.347,6.929
					c-0.057,0.103-0.107,0.172-0.154,0.207c-0.045,0.035-0.073,0.056-0.084,0.062c-0.102,0.059-0.19,0.053-0.264-0.018
					c-0.073-0.071-0.109-0.186-0.109-0.343v-2.327c0-0.297,0.022-0.537,0.067-0.72c0.045-0.183,0.125-0.395,0.238-0.634l1.768-3.661
					l-1.768-1.622c-0.112-0.11-0.193-0.229-0.238-0.36c-0.045-0.131-0.067-0.345-0.067-0.64v-2.329c0-0.157,0.036-0.312,0.109-0.468
					c0.075-0.156,0.163-0.264,0.264-0.322c0.01-0.006,0.039-0.018,0.084-0.035c0.046-0.017,0.097-0.008,0.154,0.028l3.347,3.065
					c0.158,0.117,0.238,0.316,0.238,0.596V142.378z"/>
				<path id="XMLID_2060_" style="fill:#27DEBF;" d="M269.917,140.769c0.124-0.072,0.231-0.063,0.324,0.022
					c0.09,0.088,0.136,0.228,0.136,0.419v2.563c0,0.193-0.046,0.383-0.136,0.576c-0.093,0.192-0.2,0.324-0.324,0.396l-1.579,0.912
					c-0.125,0.072-0.233,0.064-0.322-0.022c-0.091-0.088-0.136-0.226-0.136-0.419v-2.563c0-0.191,0.045-0.383,0.136-0.576
					c0.089-0.191,0.197-0.323,0.322-0.396L269.917,140.769z"/>
				<path id="XMLID_2063_" style="fill:#27DEBF;" d="M275.202,137.718c0.124-0.072,0.231-0.063,0.323,0.022
					c0.091,0.088,0.136,0.228,0.136,0.419v2.563c0,0.193-0.045,0.383-0.136,0.575c-0.091,0.192-0.199,0.324-0.323,0.396
					l-1.581,0.912c-0.125,0.072-0.231,0.064-0.322-0.023c-0.091-0.088-0.136-0.226-0.136-0.419v-2.563
					c0-0.191,0.045-0.383,0.136-0.576c0.091-0.191,0.197-0.323,0.322-0.396L275.202,137.718z"/>
				<path id="XMLID_2068_" style="fill:#27DEBF;" d="M280.484,134.668c0.124-0.072,0.231-0.064,0.324,0.022
					c0.09,0.088,0.136,0.228,0.136,0.419v2.563c0,0.193-0.046,0.383-0.136,0.576c-0.092,0.192-0.2,0.324-0.324,0.396l-1.58,0.912
					c-0.125,0.072-0.233,0.064-0.322-0.022c-0.091-0.088-0.136-0.226-0.136-0.419v-2.563c0-0.191,0.045-0.383,0.136-0.575
					c0.09-0.191,0.197-0.323,0.322-0.396L280.484,134.668z"/>
			</g>
			<path id="XMLID_959_" style="fill:#27DEBF;" d="M240.883,171.544l77.418-44.697c0.914-0.528,1.655-0.153,1.655,0.837
				c0,0.99-0.741,2.22-1.655,2.748l-77.418,44.697c-0.914,0.528-1.655,0.153-1.655-0.837
				C239.228,173.302,239.969,172.072,240.883,171.544z"/>
			<path id="XMLID_1876_" style="fill:#FFFFFF;" d="M265.722,200.226l77.418-44.697c0.914-0.528,1.655-0.153,1.655,0.837
				c0,0.99-0.741,2.22-1.655,2.748l-77.418,44.697c-0.914,0.528-1.655,0.153-1.655-0.837
				C264.067,201.984,264.808,200.753,265.722,200.226z"/>
			<path id="XMLID_1878_" style="fill:#E0E0E0;" d="M265.722,228.908l37.054-21.378c0.914-0.528,1.655-0.153,1.655,0.837
				c0,0.99-0.741,2.22-1.655,2.748l-37.054,21.378c-0.914,0.528-1.655,0.153-1.655-0.837
				C264.067,230.666,264.808,229.435,265.722,228.908z"/>
			<path id="XMLID_964_" style="fill:#27DEBF;" d="M324.716,123.143l30.844-17.873c0.914-0.528,1.655-0.153,1.655,0.837
				s-0.741,2.22-1.655,2.748l-30.844,17.874c-0.914,0.528-1.655,0.153-1.655-0.837C323.061,124.901,323.802,123.67,324.716,123.143z
				"/>
			<path id="XMLID_2051_" style="fill:#27DEBF;" d="M240.883,329.28l77.418-44.697c0.914-0.528,1.655-0.153,1.655,0.837
				c0,0.99-0.741,2.22-1.655,2.748l-77.418,44.698c-0.914,0.528-1.655,0.153-1.655-0.837
				C239.228,331.038,239.969,329.808,240.883,329.28z"/>
			<path id="XMLID_2050_" style="fill:#27DEBF;" d="M324.716,280.878l30.844-17.873c0.914-0.528,1.655-0.153,1.655,0.837
				s-0.741,2.22-1.655,2.748l-30.844,17.874c-0.914,0.528-1.655,0.153-1.655-0.837C323.061,282.637,323.802,281.406,324.716,280.878
				z"/>
			<path id="XMLID_378_" style="fill:#27DEBF;" d="M324.716,237.933l30.844-17.874c0.914-0.527,1.655-0.153,1.655,0.837
				c0,0.99-0.741,2.22-1.655,2.748l-30.844,17.874c-0.914,0.528-1.655,0.153-1.655-0.837
				C323.061,239.691,323.802,238.461,324.716,237.933z"/>
			<path id="XMLID_1893_" style="fill:#27DEBF;" d="M324.716,252.271l30.844-17.873c0.914-0.528,1.655-0.153,1.655,0.837
				c0,0.99-0.741,2.22-1.655,2.748l-30.844,17.874c-0.914,0.528-1.655,0.153-1.655-0.837
				C323.061,254.029,323.802,252.798,324.716,252.271z"/>
			<path id="XMLID_1892_" style="fill:#27DEBF;" d="M298.415,253.075l17.33-10.005c0.914-0.528,1.655-0.153,1.655,0.837
				c0,0.99-0.741,2.22-1.655,2.748l-17.329,10.005c-0.914,0.528-1.655,0.153-1.655-0.837
				C296.76,254.833,297.501,253.602,298.415,253.075z"/>
			<g id="XMLID_1135_">
				<path id="XMLID_1119_" style="fill:#27DEBF;" d="M240.883,185.918l45.156-26.09c0.914-0.528,1.655-0.153,1.655,0.837
					c0,0.99-0.741,2.22-1.655,2.748l-45.156,26.09c-0.914,0.528-1.655,0.153-1.655-0.837
					C239.228,187.676,239.969,186.446,240.883,185.918z"/>
				<path id="XMLID_960_" style="opacity:0.6;fill:#FFFFFF;" d="M240.883,185.918l45.156-26.09c0.914-0.528,1.655-0.153,1.655,0.837
					c0,0.99-0.741,2.22-1.655,2.748l-45.156,26.09c-0.914,0.528-1.655,0.153-1.655-0.837
					C239.228,187.676,239.969,186.446,240.883,185.918z"/>
			</g>
			<g id="XMLID_346_">
				<path id="XMLID_1156_" style="fill:#27DEBF;" d="M240.883,200.232l15.319-8.855c0.914-0.528,1.655-0.153,1.655,0.837
					c0,0.99-0.741,2.22-1.655,2.748l-15.319,8.855c-0.914,0.528-1.655,0.153-1.655-0.837
					C239.228,201.99,239.969,200.76,240.883,200.232z"/>
				<path id="XMLID_359_" style="opacity:0.6;fill:#FFFFFF;" d="M240.883,200.232l15.319-8.855c0.914-0.528,1.655-0.153,1.655,0.837
					c0,0.99-0.741,2.22-1.655,2.748l-15.319,8.855c-0.914,0.528-1.655,0.153-1.655-0.837
					C239.228,201.99,239.969,200.76,240.883,200.232z"/>
			</g>
			<g id="XMLID_1166_">
				<path id="XMLID_1168_" style="fill:#27DEBF;" d="M240.883,214.572l15.319-8.855c0.914-0.528,1.655-0.153,1.655,0.837
					s-0.741,2.22-1.655,2.748l-15.319,8.855c-0.914,0.528-1.655,0.153-1.655-0.837C239.228,216.33,239.969,215.1,240.883,214.572z"
					/>
				<path id="XMLID_1167_" style="opacity:0.6;fill:#FFFFFF;" d="M240.883,214.572l15.319-8.855
					c0.914-0.528,1.655-0.153,1.655,0.837s-0.741,2.22-1.655,2.748l-15.319,8.855c-0.914,0.528-1.655,0.153-1.655-0.837
					C239.228,216.33,239.969,215.1,240.883,214.572z"/>
			</g>
			<g id="XMLID_1349_">
				<path id="XMLID_1766_" style="fill:#27DEBF;" d="M240.883,228.912l15.319-8.855c0.914-0.528,1.655-0.153,1.655,0.837
					c0,0.99-0.741,2.22-1.655,2.748l-15.319,8.855c-0.914,0.528-1.655,0.153-1.655-0.837
					C239.228,230.67,239.969,229.44,240.883,228.912z"/>
			</g>
			<path id="XMLID_978_" style="opacity:0.6;fill:#FFFFFF;" d="M240.883,228.908l15.319-8.855c0.914-0.528,1.655-0.153,1.655,0.837
				c0,0.99-0.741,2.22-1.655,2.748l-15.319,8.855c-0.914,0.528-1.655,0.153-1.655-0.837
				C239.228,230.666,239.969,229.436,240.883,228.908z"/>
			<path id="XMLID_977_" style="fill:#27DEBF;" d="M265.722,214.567l45.156-26.09c0.914-0.528,1.655-0.153,1.655,0.837
				s-0.741,2.22-1.655,2.748l-45.156,26.09c-0.914,0.528-1.655,0.153-1.655-0.837C264.067,216.325,264.808,215.095,265.722,214.567z
				"/>
			<path id="XMLID_976_" style="fill:#27DEBF;" d="M317.293,184.773l19.636-11.301c0.914-0.528,1.655-0.153,1.655,0.837
				c0,0.99-0.741,2.22-1.655,2.748l-19.636,11.301c-0.914,0.528-1.655,0.153-1.655-0.837
				C315.638,186.531,316.379,185.301,317.293,184.773z"/>
			<g id="XMLID_1805_">
				<path id="XMLID_1809_" style="fill:#27DEBF;" d="M240.883,243.252l15.319-8.855c0.914-0.528,1.655-0.153,1.655,0.837
					c0,0.99-0.741,2.22-1.655,2.748l-15.319,8.855c-0.914,0.528-1.655,0.153-1.655-0.837
					C239.228,245.01,239.969,243.78,240.883,243.252z"/>
				<path id="XMLID_1806_" style="opacity:0.6;fill:#FFFFFF;" d="M240.883,243.252l15.319-8.855
					c0.914-0.528,1.655-0.153,1.655,0.837c0,0.99-0.741,2.22-1.655,2.748l-15.319,8.855c-0.914,0.528-1.655,0.153-1.655-0.837
					C239.228,245.01,239.969,243.78,240.883,243.252z"/>
			</g>
			<g id="XMLID_1126_">
				<path id="XMLID_965_" style="fill:#27DEBF;" d="M292.454,156.123l19.637-11.301c0.914-0.528,1.655-0.153,1.655,0.837
					c0,0.99-0.741,2.22-1.655,2.748l-19.636,11.301c-0.914,0.528-1.655,0.153-1.655-0.837
					C290.799,157.882,291.54,156.651,292.454,156.123z"/>
				<path id="XMLID_1125_" style="opacity:0.6;fill:#FFFFFF;" d="M292.454,156.123l19.637-11.301
					c0.914-0.528,1.655-0.153,1.655,0.837c0,0.99-0.741,2.22-1.655,2.748l-19.636,11.301c-0.914,0.528-1.655,0.153-1.655-0.837
					C290.799,157.882,291.54,156.651,292.454,156.123z"/>
			</g>
			<g id="XMLID_333_">
				<path id="XMLID_336_" style="fill:#E0E0E0;" d="M284.352,232.472l45.156-26.09c0.914-0.528,1.655-0.153,1.655,0.837
					c0,0.99-0.741,2.221-1.655,2.748l-45.156,26.09c-0.914,0.528-1.655,0.153-1.655-0.837
					C282.697,234.23,283.438,232.999,284.352,232.472z"/>
			</g>
			<g id="XMLID_302_">
				<path id="XMLID_326_" style="fill:#FFFFFF;" d="M310.404,231.829l45.156-26.09c0.914-0.528,1.655-0.153,1.655,0.837
					c0,0.99-0.741,2.22-1.655,2.748l-45.156,26.09c-0.914,0.528-1.655,0.153-1.655-0.837
					C308.749,233.587,309.49,232.357,310.404,231.829z"/>
			</g>
			<g id="XMLID_1881_">
				<path id="XMLID_294_" style="fill:#E0E0E0;" d="M335.923,202.677l19.637-11.301c0.914-0.528,1.655-0.153,1.655,0.837
					c0,0.99-0.741,2.22-1.655,2.748l-19.636,11.301c-0.914,0.528-1.655,0.153-1.655-0.837
					C334.268,204.435,335.009,203.205,335.923,202.677z"/>
			</g>
			<g id="XMLID_981_">
				<path id="XMLID_982_" style="fill:#E0E0E0;" d="M335.923,259.476l19.637-11.301c0.914-0.528,1.655-0.153,1.655,0.837
					c0,0.99-0.741,2.22-1.655,2.748l-19.636,11.301c-0.914,0.528-1.655,0.153-1.655-0.837
					C334.268,261.234,335.009,260.003,335.923,259.476z"/>
			</g>
			<g id="XMLID_1160_">
				<path id="XMLID_1165_" style="fill:#27DEBF;" d="M265.722,185.891l45.156-26.09c0.914-0.528,1.655-0.153,1.655,0.837
					c0,0.99-0.741,2.22-1.655,2.748l-45.156,26.09c-0.914,0.528-1.655,0.153-1.655-0.837
					C264.067,187.649,264.808,186.419,265.722,185.891z"/>
				<path id="XMLID_1164_" style="opacity:0.6;fill:#FFFFFF;" d="M265.722,185.891l45.156-26.09
					c0.914-0.528,1.655-0.153,1.655,0.837c0,0.99-0.741,2.22-1.655,2.748l-45.156,26.09c-0.914,0.528-1.655,0.153-1.655-0.837
					C264.067,187.649,264.808,186.419,265.722,185.891z"/>
			</g>
			<g id="XMLID_1157_">
				<path id="XMLID_1159_" style="fill:#27DEBF;" d="M317.293,156.097l19.636-11.301c0.914-0.528,1.655-0.153,1.655,0.837
					c0,0.99-0.741,2.22-1.655,2.748l-19.636,11.301c-0.914,0.528-1.655,0.153-1.655-0.837
					C315.638,157.855,316.379,156.624,317.293,156.097z"/>
				<path id="XMLID_1158_" style="opacity:0.6;fill:#FFFFFF;" d="M317.293,156.097l19.636-11.301
					c0.914-0.528,1.655-0.153,1.655,0.837c0,0.99-0.741,2.22-1.655,2.748l-19.636,11.301c-0.914,0.528-1.655,0.153-1.655-0.837
					C315.638,157.855,316.379,156.624,317.293,156.097z"/>
			</g>
			<path id="XMLID_980_" style="opacity:0.6;fill:#FFFFFF;" d="M265.722,214.567l45.156-26.09c0.914-0.528,1.655-0.153,1.655,0.837
				s-0.741,2.22-1.655,2.748l-45.156,26.09c-0.914,0.528-1.655,0.153-1.655-0.837C264.067,216.325,264.808,215.095,265.722,214.567z
				"/>
			<path id="XMLID_979_" style="opacity:0.6;fill:#FFFFFF;" d="M317.293,184.773l19.636-11.301c0.914-0.528,1.655-0.153,1.655,0.837
				c0,0.99-0.741,2.22-1.655,2.748l-19.636,11.301c-0.914,0.528-1.655,0.153-1.655-0.837
				C315.638,186.531,316.379,185.301,317.293,184.773z"/>
		</g>
	</g>
</g>
<g id="Icons">
	<g id="Java">
		<g>
			<path id="XMLID_988_" style="fill:#27DEBF;" d="M419.89,64.004l-10.771,6.167l-10.826-0.948
				c-0.137-0.009-0.264,0.009-0.374,0.055c0.866-0.51,10.306-5.912,10.698-6.121c0.127-0.073,0.283-0.109,0.456-0.091L419.89,64.004
				z"/>
			<path id="XMLID_383_" style="opacity:0.5;fill:#FFFFFF;" d="M419.89,64.004l-10.771,6.167l-10.826-0.948
				c-0.137-0.009-0.264,0.009-0.374,0.055c0.866-0.51,10.306-5.912,10.698-6.121c0.127-0.073,0.283-0.109,0.456-0.091L419.89,64.004
				z"/>
		</g>
		<g>
			<g>
				<polygon style="fill:#27DEBF;" points="453.363,66.16 414.417,43.674 406.68,48.171 409.533,105.949 426.153,125.634 
					442.773,125.14 450.509,120.643 				"/>
				<polygon style="opacity:0.5;fill:#FFFFFF;" points="453.363,66.16 445.626,70.657 406.68,48.171 414.417,43.674 				"/>
				<polygon style="opacity:0.15;" points="453.363,66.16 445.626,70.657 442.773,125.14 450.509,120.643 				"/>
				<path style="fill:#27DEBF;" d="M406.68,48.171l1.08,21.877l-9.465-0.825c-0.721-0.063-1.143,0.795-0.651,1.327l10.715,11.614
					l1.175,23.785l16.62,19.685l16.62-0.494l2.853-54.483L406.68,48.171z"/>
				<polygon style="opacity:0.5;fill:#FFFFFF;" points="426.153,65.047 441.626,73.98 439.353,118.796 426.153,119.783 				"/>
			</g>
			<polygon style="fill:#FFFFFF;" points="437.947,76.258 436.319,112.971 426.152,113.551 415.989,101.234 415.474,90.86 
				419.147,92.98 419.45,99.165 426.152,107.563 432.854,106.904 433.992,79.607 414.647,68.438 414.358,62.639 			"/>
		</g>
	</g>
	<g id="CSS">
		<path id="XMLID_1289_" style="fill:#27DEBF;" d="M419.89,156.261l-10.771,6.167l-10.826-0.948
			c-0.137-0.009-0.264,0.009-0.374,0.055c0.866-0.51,10.306-5.912,10.698-6.121c0.127-0.073,0.283-0.109,0.456-0.091L419.89,156.261
			z"/>
		<g>
			<polygon style="fill:#27DEBF;" points="453.363,158.416 414.417,135.931 406.68,140.428 409.533,198.206 426.153,217.891 
				442.773,217.396 450.509,212.9 			"/>
			<polygon style="opacity:0.35;" points="453.363,158.416 445.626,162.913 442.773,217.396 450.509,212.9 			"/>
		</g>
		<g>
			<g>
				<path style="fill:#27DEBF;" d="M406.68,140.428l1.08,21.877l-9.465-0.825c-0.721-0.063-1.143,0.795-0.651,1.327l10.715,11.614
					l1.175,23.785l16.62,19.685l16.62-0.494l2.853-54.483L406.68,140.428z"/>
				<path style="opacity:0.25;" d="M406.68,140.428l1.08,21.877l-9.465-0.825c-0.721-0.063-1.143,0.795-0.651,1.327l10.715,11.614
					l1.175,23.785l16.62,19.685l16.62-0.494l2.853-54.483L406.68,140.428z"/>
				<polygon style="opacity:0.7;fill:#27DEBF;" points="426.153,157.303 441.626,166.237 439.353,211.053 426.153,212.039 				"/>
			</g>
			<polygon style="fill:#FFFFFF;" points="414.358,154.895 414.602,160.669 433.992,171.864 433.518,183.242 415.107,172.612 
				415.351,178.385 433.289,188.742 432.854,199.161 426.152,199.82 419.45,191.422 419.147,185.237 415.474,183.116 
				415.989,193.49 426.152,205.807 436.319,205.228 437.947,168.515 			"/>
		</g>
	</g>
	<g id="HTML">
		<g>
			<polygon style="fill:#27DEBF;" points="453.363,250.66 414.417,228.175 406.68,232.671 409.533,290.449 426.153,310.135 
				442.773,309.64 450.509,305.143 			"/>
			<polygon style="opacity:0.25;" points="453.363,250.66 445.626,255.157 406.68,232.671 414.417,228.175 			"/>
			<polygon style="opacity:0.55;" points="453.363,250.66 445.626,255.157 442.773,309.64 450.509,305.143 			"/>
		</g>
		<g>
			<g>
				<g>
					<path id="XMLID_999_" style="fill:#27DEBF;" d="M419.89,248.502l-10.771,6.167l-10.826-0.948
						c-0.137-0.009-0.264,0.009-0.374,0.055c0.866-0.51,10.306-5.911,10.698-6.121c0.127-0.073,0.283-0.109,0.456-0.091
						L419.89,248.502z"/>
					<path id="XMLID_987_" style="opacity:0.25;" d="M419.89,248.502l-10.771,6.167l-10.826-0.948
						c-0.137-0.009-0.264,0.009-0.374,0.055c0.866-0.51,10.306-5.911,10.698-6.121c0.127-0.073,0.283-0.109,0.456-0.091
						L419.89,248.502z"/>
				</g>
				<path style="fill:#27DEBF;" d="M406.68,232.671l1.08,21.877l-9.465-0.825c-0.721-0.063-1.143,0.795-0.651,1.327l10.715,11.615
					l1.175,23.785l16.62,19.685l16.62-0.495l2.853-54.483L406.68,232.671z"/>
				<path style="opacity:0.4;" d="M406.68,232.671l1.08,21.877l-9.465-0.825c-0.721-0.063-1.143,0.795-0.651,1.327l10.715,11.615
					l1.175,23.785l16.62,19.685l16.62-0.495l2.853-54.483L406.68,232.671z"/>
				<polygon style="opacity:0.5;fill:#27DEBF;" points="426.153,249.547 441.626,258.48 439.353,303.297 426.153,304.283 				"/>
			</g>
			<polygon style="fill:#FFFFFF;" points="437.949,260.761 414.359,247.141 415.349,270.626 433.29,280.984 432.854,291.406 
				426.152,292.065 419.45,283.667 419.147,277.482 415.474,275.361 415.989,285.736 426.152,298.052 436.319,297.473 
				437.19,277.603 418.79,266.98 418.314,255.057 437.66,266.226 			"/>
		</g>
	</g>
</g>
<g id="Character">
	<g id="Character_2_">
		<g id="XMLID_18661_">
			<g id="XMLID_385_">
				<g id="XMLID_1020_">
					<path id="XMLID_1031_" style="fill:#37474F;" d="M250.314,367.184c-2.802,8.36-5.205,19.152-8.993,35.423
						c-3.548,15.241-3.568,26.012,1.357,29.703c4.792,3.591,19.066,1.441,28.012-17.601c2.797-5.954,13.334-24.351,13.334-24.351
						s7.799-2.812,10.488-4.918c0,0,26.011,0.759,38.642-1.829c12.631-2.588,26.07-18.021,20.896-19.543
						c-9.305-2.737-34.08-3.774-55.067-5.124L250.314,367.184z"/>
					<path id="XMLID_1030_" style="fill:#263238;" d="M320.75,380.349c-5.692,1.323-14.118-0.438-18.869-1.82
						c0.504-2.548-0.16-5.045-0.16-5.045c-0.198,2.504-1.329,4.919-2.107,6.32c-0.782,0.439-1.447,0.808-1.926,1.052
						c-3.16,1.61-11.838,6.05-13.453,4.652c-3.686-5.076-9.728-6.17-9.728-6.17c2.719,1.829,10.603,7.479,7.805,14.026l1.712-3.006
						c0,0,7.799-2.812,10.489-4.918c0,0,14.543,0.424,27.161-0.444l14.988-10.367C336.662,374.629,329.472,374.211,320.75,380.349z"
						/>
					<g id="XMLID_1026_">
						<path id="XMLID_1029_" style="fill:#F28F8F;" d="M306.174,398.087c-1.974,1.782-4.435,3.473-6.761,3.996
							c-0.875,0.197-1.743,0.177-2.542,0.01c-2.921-0.612-7.599-0.6-9.237,5.227c-1.858,6.611-9.243,9.752-11.216,14.276
							c-0.989,2.267-1.499,8.817-0.533,12.841c0.794,3.306,7.185,0.849,9.554-3.178c2.368-4.027,7.448-9.334,10.802-12.404
							c5.45-3.061,11.499-7.56,14.076-9.372L306.174,398.087z"/>
						<path id="XMLID_1028_" style="fill:#263238;" d="M344.614,361.819c16.767,1.123,17.34,10.044,13.15,16.765
							c-4.517,7.243-21.045,17.025-29.967,22.16c-8.206,4.723-22.212,13.103-22.212,13.103s-7.1-5.542-6.172-11.764
							c9.277-6.469,21.775-24.891,37.249-27.455L344.614,361.819z"/>
						<g>
							<path id="XMLID_1052_" style="fill:#263238;" d="M278.414,436.47c-0.741,0.209-2.008-0.109-2.755-0.639
								c-0.746-0.53-2.406-5.198-1.024-10.865c1.382-5.668,4.376-9.205,6.204-11.14c1.827-1.935,2.493-4.165,3.148-6.976
								c0.656-2.812,2.719-6.295,4.155-6.687c1.436-0.392,3.599,0.721,3.599,0.721L278.414,436.47z"/>
							<path id="XMLID_1051_" style="fill:#27DEBF;" d="M300.523,416.473c-0.354,1.794-1.831,2.253-3.423,2.885
								c-2.17,0.862-4.231,3.103-6.192,5.602c-1.332,1.699-2.432,3.398-3.638,5.182c-1.23,1.819-2.227,4.344-3.535,5.707
								c-1.907,1.987-5.769,1.616-6.829-1.209c-0.914-2.437-1.311-8.501,1.478-14.305c1.519-3.161,5.712-6.236,6.812-10.54
								c0.736-2.884,1.74-6.319,3.866-8.507c1.257-1.294,2.412-0.979,3.989-0.541c2.089,0.581,4.216,1.027,6.363,1.336
								c-0.042,1.776-0.585,3.538-1.55,5.029c-0.33,0.51-0.719,1.015-0.807,1.616c-0.059,0.407,0.027,0.819,0.112,1.222
								c0.119,0.558,0.325,1.214,0.875,1.366c0.222,0.061,0.459,0.022,0.687,0.053c0.861,0.116,1.274,1.101,1.495,1.942
								c0.239,0.913,0.449,1.854,0.352,2.793C300.565,416.233,300.546,416.356,300.523,416.473z"/>
							<path id="XMLID_1050_" style="opacity:0.4;" d="M300.523,416.473c-0.354,1.794-1.831,2.253-3.423,2.885
								c-2.17,0.862-4.231,3.103-6.192,5.602c-1.332,1.699-2.432,3.398-3.638,5.182c-1.23,1.819-2.227,4.344-3.535,5.707
								c-1.907,1.987-5.769,1.616-6.829-1.209c-0.914-2.437-1.311-8.501,1.478-14.305c1.519-3.161,5.712-6.236,6.812-10.54
								c0.736-2.884,1.74-6.319,3.866-8.507c1.257-1.294,2.412-0.979,3.989-0.541c2.089,0.581,4.216,1.027,6.363,1.336
								c-0.042,1.776-0.585,3.538-1.55,5.029c-0.33,0.51-0.719,1.015-0.807,1.616c-0.059,0.407,0.027,0.819,0.112,1.222
								c0.119,0.558,0.325,1.214,0.875,1.366c0.222,0.061,0.459,0.022,0.687,0.053c0.861,0.116,1.274,1.101,1.495,1.942
								c0.239,0.913,0.449,1.854,0.352,2.793C300.565,416.233,300.546,416.356,300.523,416.473z"/>
							<path id="XMLID_1049_" style="fill:#F5F5F5;" d="M292.867,422.63c0,0,1.134-0.214,1.728-1.811
								c0.454-1.222-0.089-3.614-0.991-5.199c-0.369-0.649-1.27-0.729-1.737-0.147l0,0c-0.278,0.346-0.304,0.825-0.074,1.205
								C292.427,417.724,293.51,420.012,292.867,422.63z"/>
							<path id="XMLID_1048_" style="fill:#F5F5F5;" d="M289.996,426.164c0,0,1.417-0.595,1.673-2.212c0,0,0.478-3.314-1.071-5.685
								c-0.395-0.605-1.227-0.712-1.678-0.148h0c-0.268,0.336-0.293,0.797-0.066,1.162
								C289.516,420.343,290.922,422.486,289.996,426.164z"/>
							<path id="XMLID_1027_" style="fill:#F5F5F5;" d="M287.27,430.142c0,0,1.312-0.709,1.568-2.326c0,0,0.418-3.093-1.13-5.464
								c-0.395-0.605-1.227-0.712-1.678-0.148l0,0c-0.268,0.336-0.293,0.797-0.066,1.162
								C286.626,424.428,288.196,426.464,287.27,430.142z"/>
						</g>
					</g>
					<g id="XMLID_1022_">
						<path id="XMLID_1025_" style="fill:#FFA8A7;" d="M299.484,400.572c2.971-0.75,7.334-1.816,9.138-4.194
							c1.804-2.378,5.547-4.675,10.604-1.351c3.207,2.108,7.032,2.802,10.799,3.05c1.633,0.107,3.465-0.092,5.063,0.239
							c1.924,0.398,3.948,1.572,5.601,2.593c1.052,0.65,2.076,1.396,2.785,2.409c1.267,1.808,1.308,4.392,0.098,6.239
							c-0.216,0.33-0.471,0.641-0.79,0.875c-0.388,0.285-0.855,0.445-1.326,0.548c-1.748,0.385-3.211-0.161-4.856-0.616
							c-1.371-0.379-2.767-0.669-4.166-0.924c-3.159-0.576-6.369-0.982-9.579-1.117c-1.371-0.058-4.213-0.27-5.585-0.175
							c-5.725,0.394-13.816,3.614-13.816,3.614L299.484,400.572z"/>
						<path id="XMLID_1023_" style="fill:#37474F;" d="M240.017,427.97c0.943,5.783,7.429,8.57,21.34,5.786
							c13.911-2.784,47.016-23.627,47.016-23.627s-1.295-7.991-8.904-10.136c0,0-6.922,1.253-18.218,3.712
							c-4.292,0.935-9.758,2.383-15.075,4.171c-7.633,10.248-15.579,6.109-18.439,9.715
							C242.965,423.609,240.017,427.97,240.017,427.97z"/>
						<g>
							<path id="XMLID_1047_" style="fill:#263238;" d="M345.021,409.876c0.695-0.332,1.439-1.406,1.651-2.296
								c0.212-0.89-1.615-5.495-6.389-8.847s-9.357-4.04-12.007-4.292c-2.65-0.252-4.619-1.49-6.965-3.173
								c-2.346-1.683-6.193-2.943-7.532-2.292c-1.339,0.651-2.232,2.914-2.232,2.914L345.021,409.876z"/>
							<path id="XMLID_1046_" style="fill:#27DEBF;" d="M315.214,409.403c1.449,1.116,2.862,0.488,4.476-0.086
								c2.2-0.782,5.228-0.454,8.349,0.134c2.122,0.4,4.069,0.954,6.151,1.501c2.124,0.558,4.537,1.8,6.42,1.963
								c2.744,0.238,5.404-2.586,4.34-5.409c-0.918-2.436-4.616-7.258-10.538-9.786c-3.226-1.377-8.406-0.926-12.069-3.44
								c-2.454-1.684-5.473-3.606-8.513-3.851c-1.798-0.145-2.459,0.853-3.357,2.222c-1.189,1.814-2.494,3.551-3.906,5.198
								c1.202,1.309,2.771,2.276,4.48,2.762c0.584,0.166,1.21,0.29,1.672,0.684c0.313,0.267,0.52,0.634,0.721,0.993
								c0.278,0.498,0.555,1.128,0.242,1.604c-0.127,0.192-0.331,0.319-0.482,0.493c-0.572,0.654-0.233,1.668,0.155,2.445
								c0.421,0.844,0.884,1.69,1.575,2.333C315.025,409.25,315.119,409.33,315.214,409.403z"/>
							<path id="XMLID_1024_" style="opacity:0.4;" d="M315.214,409.403c1.449,1.116,2.862,0.488,4.476-0.086
								c2.2-0.782,5.228-0.454,8.349,0.134c2.122,0.4,4.069,0.954,6.151,1.501c2.124,0.558,4.537,1.8,6.42,1.963
								c2.744,0.238,5.404-2.586,4.34-5.409c-0.918-2.436-4.616-7.258-10.538-9.786c-3.226-1.377-8.406-0.926-12.069-3.44
								c-2.454-1.684-5.473-3.606-8.513-3.851c-1.798-0.145-2.459,0.853-3.357,2.222c-1.189,1.814-2.494,3.551-3.906,5.198
								c1.202,1.309,2.771,2.276,4.48,2.762c0.584,0.166,1.21,0.29,1.672,0.684c0.313,0.267,0.52,0.634,0.721,0.993
								c0.278,0.498,0.555,1.128,0.242,1.604c-0.127,0.192-0.331,0.319-0.482,0.493c-0.572,0.654-0.233,1.668,0.155,2.445
								c0.421,0.844,0.884,1.69,1.575,2.333C315.025,409.25,315.119,409.33,315.214,409.403z"/>
							<path id="XMLID_1045_" style="fill:#F5F5F5;" d="M325.03,408.99c0,0-0.994,0.586-2.493-0.224
								c-1.147-0.62-2.314-2.777-2.68-4.564c-0.15-0.731,0.474-1.385,1.209-1.255l0,0c0.437,0.077,0.773,0.42,0.85,0.858
								C322.129,405.009,322.821,407.444,325.03,408.99z"/>
							<path id="XMLID_1044_" style="fill:#F5F5F5;" d="M329.518,409.756c0,0-1.458,0.487-2.716-0.561c0,0-2.543-2.178-2.941-4.982
								c-0.102-0.715,0.454-1.345,1.165-1.217v0c0.423,0.076,0.745,0.407,0.815,0.831
								C326.043,405.061,326.398,407.599,329.518,409.756z"/>
							<path id="XMLID_1043_" style="fill:#F5F5F5;" d="M334.19,410.952c0,0-1.454,0.332-2.712-0.716c0,0-2.353-2.051-2.75-4.854
								c-0.102-0.715,0.454-1.345,1.165-1.217l0,0c0.423,0.076,0.746,0.407,0.815,0.831
								C330.909,406.23,331.07,408.795,334.19,410.952z"/>
						</g>
					</g>
					<path id="XMLID_1021_" style="fill:#263238;" d="M275.791,405.019c0,0-9.342,1.826-16.273,6.492c0,0,7.118-8.338,18.122-9.836
						L275.791,405.019z"/>
				</g>
			</g>
		</g>
		<g>
			<path style="fill:#FFA8A7;" d="M310.774,333.784l-11.644-32.886l-3.075,1.14l1.848,36.317l2.011,5.4
				C305.114,340.946,309.36,339.022,310.774,333.784z"/>
			<path id="XMLID_18858_" style="fill:#27DEBF;" d="M283.391,292.264c7.204,0.074,13.793,2.694,16.523,8.344
				c2.729,5.65,11.077,31.321,11.077,31.321s-6.855,8.076-16.956,7.419L283.391,292.264z"/>
			<path id="XMLID_1011_" style="opacity:0.1;" d="M283.391,292.264c7.204,0.074,13.793,2.694,16.523,8.344
				c2.729,5.65,11.077,31.321,11.077,31.321s-6.855,8.076-16.956,7.419L283.391,292.264z"/>
		</g>
		<g>
			<path id="XMLID_18849_" style="fill:#FAFAFA;" d="M268.599,292.698c-10.111,1.868-16.852,4.044-18.761,5.895
				c-4.3,8.807,1.293,38.333,1.293,38.333l0.958,14.058l-1.775,16.201c10.921,9.231,44.379,4.694,50.34-8.24
				c0,0-1.669-42.127-1.669-49.589c0-7.462-4.146-16.426-15.593-17.091L268.599,292.698z"/>
			<path style="fill:#EBEBEB;" d="M261.235,360.831c-2.925-4.495-2.803-15.911-2.803-15.911s5.116-29.799,3.94-36.9l-13.509,12.94
				c0.86,8.524,2.269,15.965,2.269,15.965l0.958,14.058l-1.775,16.201c8.736,7.384,31.878,5.952,43.846-1.534
				C276.633,372.693,264.159,365.324,261.235,360.831z"/>
		</g>
		<g id="XMLID_1017_">
			<g id="XMLID_1037_">
				<path id="XMLID_1042_" style="fill:#263238;" d="M263.021,268.95c0,0,1.523,11.208,2.329,13.091
					c0.806,1.883,2.714,2.544,2.714,2.544l0.416-7.773L263.021,268.95z"/>
				<path id="XMLID_1041_" style="fill:#263238;" d="M267.15,253.366c0,0-2.497-0.623-4.619,1.246
					c-2.081,1.832-1.464,8.099,0.49,14.338l4.385,0.839L267.15,253.366z"/>
				<path id="XMLID_1040_" style="fill:#FFA8A7;" d="M268.733,269.891c-0.927,0.463-2.064-1.335-3.073-2.561
					c-1.008-1.226-4.462-3.057-6.524,0.563c-2.101,3.689,0.909,8.996,3.654,10.089c4.731,1.883,5.69-1.17,5.69-1.17l-1.008,17.839
					c4.39,9.563,21.907,6.144,15.927-0.422l0.325-4.526c0,0,5.141,0.717,7.307,0.546c3.604-0.284,5.253-2.641,6.623-6.417
					c2.199-6.064,3.232-11.016,2.67-23.309c-0.616-13.473-16.136-14.773-24.917-10.122
					C266.626,255.052,268.733,269.891,268.733,269.891z"/>
				<path id="XMLID_1039_" style="fill:#263238;" d="M268.424,246.12c2.975-1.133,6.196-1.626,9.366-2.07
					c6.883-0.964,13.884-1.803,20.303-4.466c0.792-0.328,1.638-0.692,2.477-0.517c1.615,0.337,2.182,2.366,2.124,4.014
					c-0.054,1.526-0.368,3.043-0.926,4.465c0.956-0.979,2.738-0.7,3.639,0.33c0.901,1.029,1.049,2.543,0.77,3.883
					c-0.626,3.002-3.138,5.354-5.985,6.495c-2.846,1.142-5.998,1.246-9.062,1.105c-4.279-0.196-8.538-0.84-12.684-1.916
					c-1.007-0.262-2.035-0.551-3.071-0.455c-1.036,0.097-2.101,0.677-2.443,1.659c-0.576,1.652-1.901,13.087-4.262,12.958
					c-0.44-0.024-1.895-3.037-2.906-4.149c-1.27-1.398-1.911-11.324-2.019-13.158c-0.009-0.15-0.082-0.272-0.16-0.4
					c-1.379-2.273,0.702-5.776,2.692-6.817C266.976,246.716,267.693,246.398,268.424,246.12z"/>
				<path style="fill:#263238;" d="M264.428,254.117c-1.259,1.271-3.31,1.282-4.581,0.023s-1.281-3.31-0.023-4.581L264.428,254.117z
					"/>
				<path id="XMLID_1038_" style="fill:#F28F8F;" d="M283.724,289.702c0,0-7.896-1.359-10.566-3.045
					c-1.787-1.128-3.191-2.957-3.559-4.09c0,0,0.345,2.399,1.848,4.649c1.839,2.751,12.056,5.44,12.056,5.44L283.724,289.702z"/>
			</g>
			<g id="XMLID_1018_">
				<path id="XMLID_1036_" style="fill:#263238;" d="M284.517,268.985c-0.068,0.914-0.837,1.601-1.717,1.532
					c-0.88-0.068-1.538-0.865-1.469-1.78c0.068-0.914,0.837-1.601,1.717-1.532C283.927,267.274,284.585,268.071,284.517,268.985z"/>
				<path id="XMLID_1035_" style="fill:#263238;" d="M283.276,262.842l-3.55,1.627c-0.43-1.017,0.017-2.206,0.998-2.655
					C281.704,261.364,282.847,261.824,283.276,262.842z"/>
				<path id="XMLID_1034_" style="fill:#F28F8F;" d="M283.719,280.083l3.536,1.637c-0.438,1.016-1.585,1.473-2.561,1.021
					C283.717,282.289,283.281,281.099,283.719,280.083z"/>
				<path id="XMLID_1033_" style="fill:#263238;" d="M298.641,265.358l-2.93-2.627c0.701-0.843,1.925-0.938,2.734-0.212
					C299.254,263.243,299.342,264.515,298.641,265.358z"/>
				<path id="XMLID_1032_" style="fill:#263238;" d="M297.367,269.523c-0.068,0.914-0.837,1.6-1.717,1.532
					c-0.88-0.068-1.538-0.865-1.469-1.779c0.068-0.914,0.837-1.601,1.717-1.532C296.778,267.811,297.436,268.608,297.367,269.523z"
					/>
				<polygon id="XMLID_1019_" style="fill:#F28F8F;" points="289.237,267.876 289.044,277.5 294.176,276.168 				"/>
			</g>
		</g>
		<g>
			<path id="XMLID_1016_" style="fill:#FFA8A7;" d="M238.161,365.908c-6.486-6.515-7.518-8.652-6.638-12.716
				c1.736-8.02,8.846-33.614,11.544-41.222c3.391-9.56,4.904-13.377,10.54-14.607c4.555,3.595,9.001,17.08,2.884,29.222
				l-7.379,26.495"/>
			<g>
				<path style="fill:#27DEBF;" d="M258.446,294.972c-8.707,1.005-12.394,4.519-15.532,13.932c-3.138,9.413-8.66,31.077-8.66,31.077
					s7.306,7.923,17.555,7.086l8.541-28.297C260.35,318.77,266.362,298.214,258.446,294.972z"/>
				<path style="opacity:0.1;" d="M258.446,294.972c-8.707,1.005-12.394,4.519-15.532,13.932c-3.138,9.413-8.66,31.077-8.66,31.077
					s7.306,7.923,17.555,7.086l8.541-28.297C260.35,318.77,266.362,298.214,258.446,294.972z"/>
			</g>
		</g>
		<g>
			<g id="XMLID_990_">
				<g id="XMLID_1014_">
					<path id="XMLID_1015_" style="fill:#EBEBEB;" d="M256.433,392.477v1.011c0,1.021,0.546,1.967,1.426,2.477l27.256,15.685
						c0.441,0.255,0.936,0.38,1.431,0.38c0.491,0,0.986-0.125,1.426-0.38l50-28.866c0.886-0.51,1.431-1.456,1.431-2.477v-0.696
						l-52.857,30.517L256.433,392.477z"/>
				</g>
				<g id="XMLID_1012_">
					<path id="XMLID_1013_" style="fill:#FAFAFA;" d="M339.404,379.611l-29.646-17.115c-0.527-0.304-1.177-0.304-1.704,0
						l-51.432,29.698c-0.252,0.146-0.252,0.51,0,0.656l29.924,17.28L339.404,379.611z"/>
				</g>
				<path style="fill:#FFA8A7;" d="M326.219,362.268c-4.066-7.221-15.445-28.484-15.445-28.484l-10.86,9.972
					c4.429,8.381,16.454,25.247,16.454,25.247C321.901,372.633,328.561,366.429,326.219,362.268z"/>
				<g id="XMLID_1009_">
					<polygon id="XMLID_1010_" style="fill:#E0E0E0;" points="286.274,407.613 270.284,398.39 317.039,371.396 333.113,380.57 					
						"/>
				</g>
				<g id="XMLID_1007_">
					<polygon id="XMLID_1008_" style="fill:#E0E0E0;" points="278.415,381.958 278.71,382.128 286.547,386.652 300.484,378.605 
						300.775,378.44 292.642,373.746 					"/>
				</g>
				<g id="XMLID_1005_">
					<polygon id="XMLID_1006_" style="fill:#E6E6E6;" points="278.71,382.128 286.547,386.652 300.484,378.605 292.642,374.081 
											"/>
				</g>
				<g id="XMLID_1002_">
					<path id="XMLID_1004_" style="fill:#EBEBEB;" d="M286.547,410.129v1.902c0.491,0,0.986-0.125,1.426-0.38l50-28.866
						c0.886-0.51,1.431-1.456,1.431-2.477v-0.696L286.547,410.129z"/>
				</g>
				<g id="XMLID_1000_">
					<path id="XMLID_1001_" style="fill:#E0E0E0;" d="M286.547,410.129v1.902c0.491,0,0.986-0.125,1.426-0.38l50-28.866
						c0.886-0.51,1.431-1.456,1.431-2.477v-0.696L286.547,410.129z"/>
				</g>
				<g id="XMLID_997_">
					<path id="XMLID_998_" style="fill:#27DEBF;" d="M287.353,410.551c0.946,0.365,2.022,0.295,2.918-0.225l49.78-28.741
						c0.876-0.505,1.476-1.371,1.646-2.367l5.45-32.499c0.03-0.185,0.045-0.371,0.045-0.556c0-0.906-0.36-1.772-1.001-2.407
						l-51.731,29.872c-0.646,0.375-1.091,1.016-1.216,1.751L287.353,410.551z"/>
				</g>
				<g id="XMLID_995_" style="opacity:0.7;">
					<path id="XMLID_996_" style="fill:#FFFFFF;" d="M287.353,410.551c0.946,0.365,2.022,0.295,2.918-0.225l49.78-28.741
						c0.876-0.505,1.476-1.371,1.646-2.367l5.45-32.499c0.03-0.185,0.045-0.371,0.045-0.556c0-0.906-0.36-1.772-1.001-2.407
						l-51.731,29.872c-0.646,0.375-1.091,1.016-1.216,1.751L287.353,410.551z"/>
				</g>
				<g id="XMLID_993_">
					<path id="XMLID_994_" style="fill:#FAFAFA;" d="M286.547,410.13l0.34,0.195c0.15,0.085,0.305,0.16,0.465,0.225l5.89-35.172
						c0.125-0.736,0.571-1.376,1.216-1.751l51.731-29.872c-0.2-0.2-0.435-0.375-0.69-0.526l-51.837,29.927
						c-0.646,0.375-1.091,1.016-1.216,1.751L286.547,410.13z"/>
				</g>
				<g id="XMLID_991_">
					<path id="XMLID_992_" style="fill:#27DEBF;" d="M315.389,380.549c0.365-2.176,2.611-5.066,5.017-6.455
						c2.406-1.389,4.061-0.751,3.696,1.425c-0.365,2.176-2.611,5.066-5.018,6.455C316.679,383.363,315.024,382.725,315.389,380.549z
						"/>
				</g>
			</g>
			<g id="XMLID_986_">
				<path id="XMLID_989_" style="fill:#FFA8A7;" d="M249.113,353.08c0,0,3.737,6.208,8.058,12.028
					c4.315,5.811,8.958,11.892,12.5,12.926c3.291,0.961,7.152,2.129,8.264,3.154c1.113,1.025,6.467,6.985,7.503,8.698
					c1.037,1.713,3.517,5.194,0,6.305c-3.212,1.014-5.824-0.358-8.431-2.147c-1.678-1.152-3.482-2.876-3.482-2.876
					s-3.847,0.597-7.531-1.494c-1.987-1.128-5.306-3.085-5.306-3.085c-2.738-1.883-16.347-14.475-22.526-20.681"/>
			</g>
		</g>
	</g>
</g>
</svg>
