<?xml version="1.0" standalone="no"?>
<!DOCTYPE svg PUBLIC "-//W3C//DTD SVG 20010904//EN"
 "http://www.w3.org/TR/2001/REC-SVG-20010904/DTD/svg10.dtd">
<svg version="1.0" xmlns="http://www.w3.org/2000/svg"
 width="80.000000pt" height="80.000000pt" viewBox="0 0 80.000000 80.000000"
 preserveAspectRatio="xMidYMid meet">

<g transform="translate(0.000000,80.000000) scale(0.100000,-0.100000)"
fill="#000000" stroke="none">
<path d="M235 793 c-58 -15 -95 -67 -95 -134 0 -35 6 -48 39 -80 l39 -39 91 0
91 0 0 130 0 130 -72 -1 c-40 -1 -82 -4 -93 -6z"/>
<path d="M213 515 c-67 -29 -92 -118 -53 -183 27 -45 74 -62 165 -62 l75 0 0
130 0 130 -77 0 c-44 -1 -92 -7 -110 -15z"/>
</g>
</svg>
