<?xml version="1.0" standalone="no"?>
<!DOCTYPE svg PUBLIC "-//W3C//DTD SVG 20010904//EN"
 "http://www.w3.org/TR/2001/REC-SVG-20010904/DTD/svg10.dtd">
<svg version="1.0" xmlns="http://www.w3.org/2000/svg"
 width="80.000000pt" height="80.000000pt" viewBox="0 0 80.000000 80.000000"
 preserveAspectRatio="xMidYMid meet">

<g transform="translate(0.000000,80.000000) scale(0.100000,-0.100000)"
fill="#ff5757" stroke="none">
<path d="M342 738 c3 -7 20 -58 38 -113 18 -55 36 -104 41 -109 4 -5 28 31 52
80 l45 89 43 -88 c24 -48 46 -87 49 -87 3 0 24 54 47 120 l42 120 -180 0
c-141 0 -180 -3 -177 -12z"/>
<path d="M116 444 c-21 -21 -20 -57 2 -77 24 -22 55 -21 75 1 34 37 11 92 -38
92 -13 0 -31 -7 -39 -16z"/>
<path d="M354 435 c-34 -52 31 -111 76 -70 22 20 26 65 8 83 -21 21 -66 14
-84 -13z"/>
<path d="M595 436 c-32 -48 22 -104 73 -77 29 16 37 48 18 76 -22 34 -70 34
-91 1z"/>
<path d="M490 354 c-16 -28 -58 -54 -89 -54 -10 0 -30 -12 -43 -28 -30 -36
-86 -78 -120 -91 -23 -9 -32 -6 -57 15 -16 13 -36 44 -44 67 l-15 42 -16 -37
c-40 -92 -26 -172 35 -203 47 -25 99 -15 220 39 57 27 144 56 193 67 95 20
117 33 136 80 18 43 8 59 -33 52 -42 -6 -93 18 -109 52 -15 32 -41 32 -58 -1z"/>
</g>
</svg>
